 http://www.silvertorrent.org 
http://silvertorrent.org/index.php?page=torrent-details&id=6e60f5727c47c216cc40c3fcae1354534d878484 
http://www.shotpix.com/images/08096634903738710469.png 
http://imageshack.us/a/img607/1776/jackreacherposter.jpg

Genre: Action | Crime | Thriller
IMDb Rating: 7.3/10 from 6,346 users


File size                                : 1.37 GiB
Duration                                 : 2h 4mn
Overall bit rate                         : 1 575 Kbps
Writing library                          : VirtualDub build 32842/release


Video
ID                                       : 0
Format                                   : MPEG-4 Visual
Format profile                           : Advanced Simple@L5
Format settings, BVOP                    : 2
Format settings, QPel                    : No
Format settings, GMC                     : No warppoints
Format settings, Matrix                  : Default (H.263)
Muxing mode                              : Packed bitstream
Codec ID                                 : XVID
Codec ID/Hint                            : XviD
Duration                                 : 2h 4mn
Bit rate                                 : 1 435 Kbps
Width                                    : 720 pixels
Height                                   : 336 pixels
Display aspect ratio                     : 2.143
Frame rate                               : 29.970 fps
Color space                              : YUV
Chroma subsampling                       : 4:2:0
Bit depth                                : 8 bits
Scan type                                : Progressive
Compression mode                         : Lossy
Bits/(Pixel*Frame)                       : 0.198
Stream size                              : 1.25 GiB (91%)
Writing library                          : XviD 64


Audio
ID                                       : 1
Format                                   : MPEG Audio
Format version                           : Version 1
Format profile                           : Layer 3
Codec ID                                 : 55
Codec ID/Hint                            : MP3
Duration                                 : 2h 4mn
Bit rate mode                            : Constant
Bit rate                                 : 128 Kbps
Channel(s)                               : 2 channels
Sampling rate                            : 48.0 KHz
Compression mode                         : Lossy
Stream size                              : 114 MiB (8%)
Alignment                                : Split accross interleaves
Interleave, duration                     : 33 ms (1.00 video frame)
Writing library                          : LAME3.98.4



IMDB:   http://www.imdb.com/title/tt0790724/ 
http://silvertorrent.org/index.php?page=torrent-details&id=6e60f5727c47c216cc40c3fcae1354534d878484 
http://piczend.com/img.php?image=6163_1_tbvq.png
http://piczend.com/img.php?image=1550_5_5xwk.png
http://piczend.com/img.php?image=2517_4_gnz0.png
http://piczend.com/img.php?image=0363_3_1mpn.png
http://piczend.com/img.php?image=5829_2_w3p9.png
 
http://silvertorrent.org/index.php?page=torrent-details&id=6e60f5727c47c216cc40c3fcae1354534d878484